# xmcd CD database file
#
# Track frame offsets:
#	150
#	16867
#	46826
#	71024
#	94009
#	132751
#	159165
#	187018
#	218786
#
# Disc length: 3555 seconds
#
# Revision: 2
# Processed by: cddbd v1.5.2PL0 Copyright (c) Steve Scherf et al.
# Submitted via: CDex 1.51
#
DISCID=6f0de109
DTITLE=Tania Maria With The Frankfurt Radio Bigband - It's Only Love
DYEAR=2007
DGENRE=Jazz
TTITLE0=Confusion
TTITLE1=It's Only Love
TTITLE2=Chuleta
TTITLE3=It's All In My Hands
TTITLE4=Tranquility
TTITLE5=Come With Me
TTITLE6=Valeu
TTITLE7=Dear Dee Vee
TTITLE8=Eruption
EXTD=tania maria live with the frankfurt radio bigband YEAR: 2007
EXTT0=
EXTT1=
EXTT2=
EXTT3=
EXTT4=
EXTT5=
EXTT6=
EXTT7=
EXTT8=
PLAYORDER=
